# xmcd CD database file
#
# Track frame offsets:
#	187
#	19377
#	38680
#	59087
#	77475
#	102232
#	122437
#	147502
#	169625
#	196675
#
# Disc length: 2942 seconds
#
# Revision: 0
# Processed by: cddbd v1.5PL3 Copyright (c) Steve Scherf et al.
# Submitted via: CDex 1.40Release
#
DISCID=7f0b7c0a
DTITLE=GREAT CHICKEN POWERS - MIX
DYEAR=1995
DGENRE=不明
TTITLE0=君と自転車2人乗り
TTITLE1=大きなジープに乗ってこのMACHIを出よう
TTITLE2=進め!!2人の大冒険
TTITLE3=1つに
TTITLE4=おしゃれしようよ
TTITLE5=銀色のリング
TTITLE6=それだけでいい
TTITLE7=初めてあったあの時の気持ちで...
TTITLE8=MIX JUICE(Special Version)
TTITLE9=ありがとう
EXTD=YEAR: 1995
EXTT0=
EXTT1=
EXTT2=
EXTT3=
EXTT4=
EXTT5=
EXTT6=
EXTT7=
EXTT8=
EXTT9=
PLAYORDER=
